<svg width="28" height="28" viewBox="0 0 28 28" fill="none" xmlns="http://www.w3.org/2000/svg">
<path fill-rule="evenodd" clip-rule="evenodd" d="M14 0C6.26818 0 0 6.26818 0 14C0 21.7318 6.26818 28 14 28C21.7318 28 28 21.7318 28 14C28 6.26818 21.7318 0 14 0ZM2.54545 14C2.54545 16.66 3.45291 19.1087 4.97382 21.0535C6.04193 19.6508 7.41987 18.514 9.00001 17.732C10.5801 16.95 12.3197 16.5439 14.0827 16.5455C15.823 16.5438 17.5406 16.9394 19.1048 17.7021C20.669 18.4648 22.0385 19.5744 23.1089 20.9465C24.2117 19.5002 24.9542 17.8121 25.275 16.0218C25.5958 14.2316 25.4856 12.3907 24.9537 10.6514C24.4218 8.91219 23.4834 7.32461 22.2161 6.02005C20.9488 4.71549 19.389 3.73146 17.6659 3.14937C15.9428 2.56729 14.1059 2.40389 12.3071 2.67269C10.5083 2.94149 8.79937 3.63477 7.32171 4.69516C5.84404 5.75555 4.64012 7.15256 3.80956 8.77061C2.97901 10.3887 2.54568 12.1812 2.54545 14ZM14 25.4545C11.3705 25.4585 8.82034 24.5539 6.78109 22.8938C7.60191 21.7188 8.69443 20.7594 9.9657 20.0972C11.237 19.4351 12.6494 19.0899 14.0827 19.0909C15.4982 19.0898 16.8935 19.4264 18.1528 20.0727C19.4121 20.7191 20.499 21.6565 21.3233 22.8073C19.2682 24.5213 16.676 25.4583 14 25.4545Z" fill="white"/>
</svg>
